<svg width="78" height="126" viewBox="0 0 78 126" fill="none" xmlns="http://www.w3.org/2000/svg">
<g clip-path="url(#clip0_1852_9026)">
<path d="M66.1532 49.6653C67.1681 49.6653 67.9908 48.8461 67.9908 47.8355C67.9908 46.825 67.1681 46.0057 66.1532 46.0057C65.1383 46.0057 64.3156 46.825 64.3156 47.8355C64.3156 48.8461 65.1383 49.6653 66.1532 49.6653Z" fill="#229DA4"/>
<path d="M42.5271 2.61396C43.252 2.61396 43.8396 2.02881 43.8396 1.30698C43.8396 0.585155 43.252 0 42.5271 0C41.8022 0 41.2145 0.585155 41.2145 1.30698C41.2145 2.02881 41.8022 2.61396 42.5271 2.61396Z" fill="#FF6584"/>
<path d="M13.9132 43.1304C14.6381 43.1304 15.2257 42.5452 15.2257 41.8234C15.2257 41.1016 14.6381 40.5164 13.9132 40.5164C13.1883 40.5164 12.6006 41.1016 12.6006 41.8234C12.6006 42.5452 13.1883 43.1304 13.9132 43.1304Z" fill="#FF6584"/>
<path d="M59.8529 38.6867C60.5778 38.6867 61.1655 38.1015 61.1655 37.3797C61.1655 36.6578 60.5778 36.0727 59.8529 36.0727C59.128 36.0727 58.5403 36.6578 58.5403 37.3797C58.5403 38.1015 59.128 38.6867 59.8529 38.6867Z" fill="#229DA4"/>
<path d="M19.951 56.4616C20.6759 56.4616 21.2635 55.8764 21.2635 55.1546C21.2635 54.4328 20.6759 53.8476 19.951 53.8476C19.2261 53.8476 18.6384 54.4328 18.6384 55.1546C18.6384 55.8764 19.2261 56.4616 19.951 56.4616Z" fill="#229DA4"/>
<path d="M61.428 60.1211C62.1529 60.1211 62.7405 59.5359 62.7405 58.8141C62.7405 58.0923 62.1529 57.5071 61.428 57.5071C60.7031 57.5071 60.1154 58.0923 60.1154 58.8141C60.1154 59.5359 60.7031 60.1211 61.428 60.1211Z" fill="#E6E6E6"/>
<path d="M49.8774 13.5926C50.6023 13.5926 51.19 13.0074 51.19 12.2856C51.19 11.5638 50.6023 10.9786 49.8774 10.9786C49.1525 10.9786 48.5648 11.5638 48.5648 12.2856C48.5648 13.0074 49.1525 13.5926 49.8774 13.5926Z" fill="#CCCCCC"/>
<path d="M0.266909 27.9633C1.6413 28.0495 2.9756 28.4588 4.16045 29.1577C5.3453 29.8565 6.34696 30.825 7.08332 31.9838C7.28968 32.3123 7.55907 32.6732 7.41621 33.0776C7.36645 33.2326 7.26533 33.3663 7.1294 33.4566C6.99347 33.547 6.83077 33.5889 6.66788 33.5752C6.4648 33.5317 6.28174 33.4229 6.14694 33.2655C6.01214 33.1081 5.93309 32.9109 5.92197 32.7043C5.91086 32.4978 5.9683 32.2933 6.08544 32.1225C6.20258 31.9517 6.37291 31.824 6.57016 31.7591C7.52339 31.3542 8.4851 31.9799 9.26157 32.4793C11.0308 33.6171 12.9768 34.6462 15.1206 34.7759C17.1041 34.8958 19.2311 34.1214 20.3344 32.4086C20.5274 32.109 20.0482 31.8321 19.8561 32.1302C18.7619 33.8289 16.55 34.439 14.6267 34.1764C13.4806 33.9963 12.3739 33.6222 11.3546 33.0702C10.826 32.7971 10.3133 32.4942 9.81094 32.1759C9.33294 31.8438 8.82628 31.5546 8.29692 31.3117C7.41409 30.9506 6.24536 30.9788 5.62869 31.8102C5.05338 32.5858 5.49799 33.8772 6.46023 34.0952C6.67132 34.1367 6.88943 34.1253 7.09502 34.0621C7.30061 33.999 7.48724 33.886 7.63819 33.7334C7.78914 33.5807 7.8997 33.3931 7.95994 33.1875C8.02018 32.9818 8.02822 32.7645 7.98336 32.555C7.88735 32.0982 7.54194 31.6512 7.27458 31.2779C6.47125 30.1526 5.42465 29.2211 4.21185 28.552C2.99905 27.8829 1.65096 27.4932 0.266877 27.4117C-0.0894235 27.3942 -0.0884622 27.9458 0.266909 27.9633Z" fill="#CCCCCC"/>
<path d="M77.895 44.6589C76.974 44.0685 76.2067 43.2693 75.6559 42.3266C75.105 41.3839 74.7864 40.3247 74.7261 39.2357C74.7107 38.9279 74.6641 38.5732 74.9207 38.3476C75.0156 38.2591 75.1379 38.2053 75.2675 38.195C75.3971 38.1847 75.5263 38.2185 75.6341 38.2908C75.7582 38.3994 75.843 38.5457 75.8753 38.707C75.9077 38.8683 75.8858 39.0358 75.8132 39.1835C75.7405 39.3313 75.621 39.4511 75.4731 39.5245C75.3253 39.5979 75.1573 39.6209 74.995 39.5898C74.1754 39.5031 73.751 38.6973 73.4062 38.0508C72.6204 36.5777 71.6695 35.1119 70.2311 34.1944C68.9003 33.3455 67.1216 33.0623 65.6887 33.826C65.438 33.9596 65.663 34.3369 65.9125 34.204C67.3336 33.4466 69.1073 33.8766 70.3408 34.8013C71.0666 35.3688 71.6896 36.0558 72.1826 36.8325C72.4434 37.2263 72.6816 37.6345 72.9065 38.0494C73.1092 38.4646 73.3485 38.861 73.6216 39.234C74.0942 39.8256 74.9168 40.2571 75.6687 39.9177C75.8363 39.8314 75.9812 39.7072 76.0919 39.5551C76.2027 39.403 76.2761 39.2273 76.3065 39.0419C76.3368 38.8565 76.3231 38.6666 76.2666 38.4874C76.21 38.3082 76.1121 38.1446 75.9808 38.0098C75.8503 37.8995 75.6944 37.8233 75.527 37.7878C75.3597 37.7523 75.1861 37.7587 75.0218 37.8064C74.8575 37.8542 74.7077 37.9418 74.5858 38.0614C74.464 38.1809 74.3738 38.3288 74.3234 38.4916C74.246 38.8744 74.2443 39.2686 74.3185 39.6521C74.4383 40.7437 74.8026 41.7946 75.3844 42.7274C75.9662 43.6602 76.7507 44.4511 77.6803 45.042C77.9209 45.1917 78.135 44.8082 77.895 44.6589Z" fill="#CCCCCC"/>
<path d="M32.6018 8.47068C31.5087 8.40211 30.4475 8.07657 29.5051 7.52074C28.5627 6.96491 27.7661 6.19461 27.1804 5.27299C27.0163 5.01173 26.802 4.72462 26.9156 4.40303C26.9552 4.27972 27.0356 4.17343 27.1437 4.10153C27.2519 4.02964 27.3813 3.99638 27.5108 4.00721C27.6723 4.04184 27.8179 4.12841 27.9251 4.25359C28.0324 4.37877 28.0952 4.5356 28.1041 4.69988C28.1129 4.86417 28.0672 5.02679 27.974 5.16265C27.8809 5.29852 27.7454 5.40009 27.5885 5.4517C26.8304 5.77372 26.0655 5.27606 25.4479 4.87889C24.0408 3.97389 22.493 3.15545 20.788 3.05231C19.2104 2.9569 17.5186 3.57283 16.6412 4.93508C16.4876 5.17341 16.8688 5.39364 17.0216 5.15648C17.8918 3.80547 19.6511 3.32024 21.1807 3.52906C22.0923 3.6723 22.9725 3.96986 23.7832 4.40887C24.2037 4.62613 24.6114 4.86698 25.011 5.12016C25.3911 5.38431 25.7941 5.61434 26.2151 5.80754C26.9173 6.09475 27.8468 6.07231 28.3373 5.41105C28.4413 5.25435 28.5071 5.07559 28.5294 4.88906C28.5516 4.70252 28.5297 4.51339 28.4655 4.33679C28.4012 4.16018 28.2963 4.00099 28.1592 3.87196C28.0221 3.74292 27.8566 3.64761 27.6759 3.59365C27.5081 3.56069 27.3346 3.56973 27.1711 3.61996C27.0075 3.67019 26.8591 3.76004 26.739 3.88145C26.619 4.00286 26.5311 4.15204 26.4831 4.31561C26.4352 4.47919 26.4288 4.65204 26.4645 4.81869C26.5843 5.19054 26.7758 5.53555 27.0283 5.83442C27.6672 6.72941 28.4996 7.47027 29.4642 8.00243C30.4288 8.5346 31.501 8.84451 32.6018 8.90935C32.8852 8.92331 32.8844 8.4846 32.6018 8.47068Z" fill="#CCCCCC"/>
<path d="M33.6016 22.368H32.2891V26.6624H33.6016V22.368Z" fill="#CCCCCC"/>
<path d="M12.3793 19.3712L13.2915 18.4629L10.2943 15.4784L9.38205 16.3867L12.3793 19.3712Z" fill="#B3B3B3"/>
<path d="M49.284 28.3959L50.1962 29.3043L53.1934 26.3198L52.2812 25.4115L49.284 28.3959Z" fill="#B3B3B3"/>
<path d="M12.0072 65.5142L12.9194 66.4225L15.9166 63.438L15.0044 62.5297L12.0072 65.5142Z" fill="#FF6584"/>
</g>
<defs>
<clipPath id="clip0_1852_9026">
<rect width="78" height="126" fill="white"/>
</clipPath>
</defs>
</svg>
