<svg width="20" height="20" viewBox="0 0 20 20" fill="none" xmlns="http://www.w3.org/2000/svg">
<path fill-rule="evenodd" clip-rule="evenodd" d="M4.77 1.082C8.24603 0.696705 11.754 0.696705 15.23 1.082C17.129 1.294 18.66 2.789 18.883 4.695C19.2952 8.21966 19.2952 11.7803 18.883 15.305C18.66 17.211 17.129 18.706 15.231 18.919C11.7547 19.3044 8.24636 19.3044 4.77 18.919C2.871 18.706 1.34 17.211 1.117 15.306C0.704732 11.781 0.704732 8.21999 1.117 4.695C1.34 2.789 2.871 1.294 4.77 1.082ZM15 4C14.7348 4 14.4804 4.10536 14.2929 4.2929C14.1054 4.48043 14 4.73479 14 5C14 5.26522 14.1054 5.51957 14.2929 5.70711C14.4804 5.89465 14.7348 6 15 6C15.2652 6 15.5196 5.89465 15.7071 5.70711C15.8946 5.51957 16 5.26522 16 5C16 4.73479 15.8946 4.48043 15.7071 4.2929C15.5196 4.10536 15.2652 4 15 4ZM5.25 10C5.25 8.74023 5.75045 7.53204 6.64125 6.64125C7.53204 5.75045 8.74023 5.25 10 5.25C11.2598 5.25 12.468 5.75045 13.3588 6.64125C14.2496 7.53204 14.75 8.74023 14.75 10C14.75 11.2598 14.2496 12.468 13.3588 13.3588C12.468 14.2496 11.2598 14.75 10 14.75C8.74023 14.75 7.53204 14.2496 6.64125 13.3588C5.75045 12.468 5.25 11.2598 5.25 10Z" fill="white"/>
</svg>
