<svg width="20" height="18" viewBox="0 0 20 18" fill="none" xmlns="http://www.w3.org/2000/svg">
<path d="M4.94 1.99999C4.93974 2.53043 4.72877 3.03903 4.35351 3.41391C3.97825 3.7888 3.46944 3.99926 2.939 3.99899C2.40857 3.99873 1.89997 3.78776 1.52508 3.4125C1.1502 3.03724 0.939737 2.52843 0.940003 1.99799C0.940268 1.46756 1.15124 0.958958 1.5265 0.584072C1.90176 0.209187 2.41057 -0.00127205 2.941 -0.00100683C3.47144 -0.000741613 3.98004 0.210226 4.35492 0.585487C4.72981 0.960747 4.94027 1.46956 4.94 1.99999ZM5 5.47999H1V18H5V5.47999ZM11.32 5.47999H7.34V18H11.28V11.43C11.28 7.76999 16.05 7.42999 16.05 11.43V18H20V10.07C20 3.89999 12.94 4.12999 11.28 7.15999L11.32 5.47999Z" fill="white"/>
</svg>
